<svg width="115" height="115" viewBox="0 0 115 115" fill="none" xmlns="http://www.w3.org/2000/svg">
<path d="M27.1328 41.2383H48.7852V42.9453H29.1094V55.8828H47.6172V57.5898H29.1094V71.7852H49.0547V73.4922H27.1328V41.2383ZM50.7617 41.2383H53.0977L63.3398 55.4336L73.6719 41.2383L87.8672 23.2695L64.5078 56.9609L76.5469 73.4922H74.1211L63.25 58.3984L52.2891 73.4922H49.9531L62.082 56.9609L50.7617 41.2383ZM77.4453 42.9453V41.2383H102.152V42.9453H90.7422V73.4922H88.7656V42.9453H77.4453ZM0 41.2383H2.42578L36.7461 92.2695L22.5508 73.4922L2.06641 43.6641L1.97656 73.4922H0V41.2383ZM101.973 71.2461C102.422 71.2461 102.691 70.9766 102.691 70.5273C102.691 70.0781 102.422 69.8086 101.973 69.8086C101.523 69.8086 101.254 70.0781 101.254 70.5273C101.254 70.9766 101.613 71.2461 101.973 71.2461ZM103.949 69.3594C103.949 70.5273 104.848 71.3359 106.105 71.3359C107.453 71.3359 108.262 70.5273 108.262 69.0898V64.1484H107.184V69.0898C107.184 69.8984 106.824 70.2578 106.105 70.2578C105.477 70.2578 105.027 69.8984 105.027 69.2695H103.949V69.3594ZM109.609 69.2695C109.699 70.5273 110.688 71.3359 112.305 71.3359C113.922 71.3359 115 70.5273 115 69.1797C115 68.1016 114.371 67.5625 113.023 67.2031L112.215 67.0234C111.316 66.8437 110.957 66.4844 110.957 66.0352C110.957 65.4062 111.496 64.957 112.395 64.957C113.203 64.957 113.742 65.3164 113.832 66.0352H114.91C114.82 64.8672 113.832 64.0586 112.395 64.0586C110.867 64.0586 109.879 64.8672 109.879 66.125C109.879 67.1133 110.418 67.7422 111.676 68.0117L112.574 68.1914C113.473 68.3711 113.922 68.7305 113.922 69.2695C113.922 69.8984 113.293 70.3477 112.395 70.3477C111.496 70.3477 110.777 69.8984 110.688 69.2695H109.609Z" fill="black"/>
</svg>
