<svg width="115" height="115" viewBox="0 0 115 115" fill="none" xmlns="http://www.w3.org/2000/svg">
<g clip-path="url(#clip0_4_1469)">
<path d="M88.0469 0H26.9531C12.0673 0 0 12.0673 0 26.9531V88.0469C0 102.933 12.0673 115 26.9531 115H88.0469C102.933 115 115 102.933 115 88.0469V26.9531C115 12.0673 102.933 0 88.0469 0Z" fill="#007ACC"/>
<path d="M25.4307 57.8814L25.3943 62.591H40.3623V105.123H50.9503V62.591H65.9183V57.9725C65.9183 55.4169 65.8639 53.2814 65.7907 53.2266C65.7359 53.1538 56.6271 53.1169 45.5835 53.1354L25.4859 53.1902L25.4307 57.8814ZM92.7937 53.0563C95.7141 53.7867 97.9413 55.0827 99.9857 57.1999C101.045 58.3319 102.614 60.3947 102.742 60.8875C102.779 61.0335 97.7769 64.3923 94.7469 66.2723C94.6373 66.3455 94.1989 65.8707 93.7061 65.1407C92.2277 62.9867 90.6761 62.0555 88.3029 61.8915C84.8165 61.6539 82.5713 63.4795 82.5897 66.5279C82.5897 67.4223 82.7173 67.9515 83.0825 68.6819C83.8489 70.2699 85.2729 71.2191 89.7453 73.1539C97.9777 76.6955 101.5 79.0319 103.691 82.3539C106.137 86.0595 106.685 91.9739 105.024 96.3731C103.199 101.155 98.6713 104.405 92.3005 105.482C90.3293 105.829 85.6561 105.774 83.5389 105.391C78.9205 104.569 74.5397 102.288 71.8381 99.2939C70.7793 98.1255 68.7165 95.0771 68.8445 94.8579C68.8989 94.7851 69.3737 94.4931 69.9029 94.1827C70.4141 93.8907 72.3493 92.7771 74.1745 91.7183L77.4785 89.8015L78.1721 90.8239C79.1397 92.3023 81.2569 94.3287 82.5349 95.0039C86.2037 96.9391 91.2421 96.6651 93.7245 94.4383C94.7833 93.4707 95.2213 92.4667 95.2213 90.9883C95.2213 89.6555 95.0569 89.0715 94.3633 88.0675C93.4689 86.7899 91.6437 85.7127 86.4593 83.4675C80.5269 80.9119 77.9713 79.3239 75.6349 76.8047C74.2841 75.3447 73.0061 73.0079 72.4769 71.0547C72.0389 69.4303 71.9293 65.3595 72.2761 63.7167C73.4989 57.9851 77.8253 53.9875 84.0681 52.8007C86.0945 52.4175 90.8037 52.5635 92.7937 53.0563Z" fill="#E8E9ED"/>
</g>
<defs>
<clipPath id="clip0_4_1469">
<rect width="115" height="115" fill="white"/>
</clipPath>
</defs>
</svg>
