<svg width="115" height="115" viewBox="0 0 115 115" fill="none" xmlns="http://www.w3.org/2000/svg">
<g clip-path="url(#clip0_4_1454)">
<path d="M88.0469 0H26.9531C12.0673 0 0 12.0673 0 26.9531V88.0469C0 102.933 12.0673 115 26.9531 115H88.0469C102.933 115 115 102.933 115 88.0469V26.9531C115 12.0673 102.933 0 88.0469 0Z" fill="#242938"/>
<path fill-rule="evenodd" clip-rule="evenodd" d="M37.2852 49.4141C39.9805 38.6328 46.7192 33.2422 57.5 33.2422C73.6719 33.2422 75.6934 45.3711 83.7793 47.3926C89.1704 48.7407 93.8867 46.7192 97.9297 41.3281C95.2348 52.1089 88.4956 57.5 77.7148 57.5C61.543 57.5 59.5215 45.3711 51.4355 43.3496C46.0445 42.002 41.3281 44.0234 37.2852 49.4141ZM17.0703 73.6719C19.7656 62.8911 26.5039 57.5 37.2852 57.5C53.457 57.5 55.4785 69.6289 63.5645 71.6504C68.9555 72.9985 73.6719 70.977 77.7148 65.5859C75.02 76.3667 68.2808 81.7578 57.5 81.7578C41.3281 81.7578 39.3066 69.6289 31.2207 67.6074C25.8301 66.2593 21.1133 68.2808 17.0703 73.6719Z" fill="url(#paint0_linear_4_1454)"/>
</g>
<defs>
<linearGradient id="paint0_linear_4_1454" x1="38.8574" y1="33.2422" x2="73.4473" y2="83.3301" gradientUnits="userSpaceOnUse">
<stop stop-color="#32B1C1"/>
<stop offset="1" stop-color="#14C6B7"/>
</linearGradient>
<clipPath id="clip0_4_1454">
<rect width="115" height="115" fill="white"/>
</clipPath>
</defs>
</svg>
