<svg width="115" height="115" viewBox="0 0 115 115" fill="none" xmlns="http://www.w3.org/2000/svg">
<g clip-path="url(#clip0_4_1435)">
<path d="M88.0469 0H26.9531C12.0673 0 0 12.0673 0 26.9531V88.0469C0 102.933 12.0673 115 26.9531 115H88.0469C102.933 115 115 102.933 115 88.0469V26.9531C115 12.0673 102.933 0 88.0469 0Z" fill="#242938"/>
<path d="M57.5005 66.0132C62.1292 66.0132 65.8811 62.2609 65.8811 57.6326C65.8811 53.0043 62.1292 49.252 57.5005 49.252C52.8722 49.252 49.1199 53.0043 49.1199 57.6326C49.1199 62.2609 52.8722 66.0132 57.5005 66.0132Z" fill="#00D8FF"/>
<path d="M57.5009 40.5928C68.7529 40.5928 79.2058 42.2073 87.0873 44.921C96.5834 48.19 102.422 53.1453 102.422 57.6325C102.422 62.3085 96.2343 67.5729 86.0366 70.9514C78.3271 73.5057 68.182 74.839 57.5009 74.839C46.5498 74.839 36.1796 73.5874 28.383 70.9231C18.519 67.5517 12.5781 62.2195 12.5781 57.6325C12.5781 53.1817 18.1529 48.2645 27.5155 45.0005C35.4263 42.2423 46.137 40.5928 57.4991 40.5928H57.5009Z" stroke="#00D8FF" stroke-width="8.911"/>
<path d="M42.6673 49.1616C48.2888 39.4144 54.909 31.1659 61.1971 25.6944C68.7727 19.1012 75.9827 16.5191 79.8694 18.7603C83.92 21.0962 85.3894 29.0869 83.2219 39.6085C81.5845 47.5628 77.67 57.0171 72.3337 66.2701C66.8627 75.7567 60.5983 84.1149 54.396 89.536C46.5477 96.3965 38.9599 98.8793 34.9866 96.5879C31.1309 94.366 29.6566 87.0792 31.5065 77.3379C33.0693 69.1069 36.9914 59.0044 42.6655 49.1616H42.6673Z" stroke="#00D8FF" stroke-width="8.911"/>
<path d="M42.6812 66.2949C37.0439 56.5585 33.2058 46.7018 31.6039 38.5215C29.6754 28.6652 31.0388 21.1295 34.9223 18.8816C38.9693 16.5385 46.6253 19.2563 54.6582 26.389C60.7317 31.7814 66.9682 39.8929 72.3197 49.137C77.8065 58.6146 81.9186 68.2166 83.5183 76.2972C85.5425 86.5232 83.9042 94.3365 79.9344 96.6342C76.0828 98.8641 69.0341 96.5035 61.5183 90.0356C55.1681 84.5713 48.3741 76.1283 42.6812 66.2949Z" stroke="#00D8FF" stroke-width="8.911"/>
</g>
<defs>
<clipPath id="clip0_4_1435">
<rect width="115" height="115" fill="white"/>
</clipPath>
</defs>
</svg>
