<svg width="115" height="115" viewBox="0 0 115 115" fill="none" xmlns="http://www.w3.org/2000/svg">
<g clip-path="url(#clip0_4_1461)">
<path d="M88.0469 0H26.9531C12.0673 0 0 12.0673 0 26.9531V88.0469C0 102.933 12.0673 115 26.9531 115H88.0469C102.933 115 115 102.933 115 88.0469V26.9531C115 12.0673 102.933 0 88.0469 0Z" fill="#F0DB4F"/>
<path d="M30.2378 96.1024L39.038 90.7764C40.736 93.7867 42.2804 96.3337 45.9851 96.3337C49.5362 96.3337 51.7751 94.9447 51.7751 89.5415V52.7963H62.5824V89.6943C62.5824 100.887 56.0211 105.982 46.4483 105.982C37.803 105.982 32.7848 101.505 30.2373 96.1015M68.4523 94.9443L77.2516 89.8497C79.5683 93.6326 82.5789 96.4114 87.9049 96.4114C92.3831 96.4114 95.2384 94.1725 95.2384 91.0846C95.2384 87.3795 92.305 86.0668 87.3645 83.9061L84.6633 82.7476C76.8662 79.4287 71.6939 75.26 71.6939 66.4598C71.6939 58.3541 77.8698 52.1782 87.5194 52.1782C94.3898 52.1782 99.3303 54.5717 102.881 60.8243L94.4666 66.228C92.6136 62.9087 90.6074 61.5965 87.5194 61.5965C84.3542 61.5965 82.3471 63.6037 82.3471 66.228C82.3471 69.47 84.3542 70.7826 88.9857 72.7902L91.6873 73.9478C100.873 77.8852 106.046 81.8985 106.046 90.9301C106.046 100.657 98.4036 105.983 88.1367 105.983C78.1016 105.983 71.6171 101.197 68.4523 94.9443Z" fill="#323330"/>
</g>
<defs>
<clipPath id="clip0_4_1461">
<rect width="115" height="115" fill="white"/>
</clipPath>
</defs>
</svg>
