<svg width="115" height="115" viewBox="0 0 115 115" fill="none" xmlns="http://www.w3.org/2000/svg">
<path d="M57.5 107.813C56.1425 107.813 54.8088 107.456 53.6331 106.778L41.3281 99.493C39.4917 98.4652 40.3865 98.1023 40.9939 97.8902C42.947 97.2868 44.8171 96.4417 46.5606 95.3746C46.7065 95.3071 46.8673 95.2779 47.0277 95.2899C47.188 95.3018 47.3427 95.3545 47.477 95.4429L56.9322 101.06C57.1082 101.153 57.3044 101.202 57.5036 101.202C57.7028 101.202 57.8989 101.153 58.075 101.06L94.9469 79.7777C95.1194 79.6743 95.2621 79.5279 95.361 79.3528C95.4599 79.1776 95.5116 78.9798 95.5111 78.7787V36.2071C95.5112 36.0028 95.4587 35.8019 95.3586 35.6237C95.2585 35.4456 95.1142 35.2962 94.9397 35.1901L58.0678 13.9258C57.8939 13.8279 57.6977 13.7765 57.4982 13.7765C57.2986 13.7765 57.1024 13.8279 56.9286 13.9258L20.0783 35.1973C19.9025 35.3012 19.7565 35.4488 19.6545 35.6257C19.5525 35.8026 19.498 36.0029 19.4961 36.2071V78.7607C19.4966 78.9614 19.5504 79.1583 19.6521 79.3313C19.7538 79.5044 19.8996 79.6473 20.0747 79.7454L30.1875 85.5816C35.6679 88.3201 39.0245 85.0929 39.0245 81.8513V39.8368C39.0245 39.5508 39.1381 39.2766 39.3403 39.0744C39.5425 38.8722 39.8167 38.7587 40.1026 38.7587H44.7745C45.0604 38.7587 45.3347 38.8722 45.5369 39.0744C45.739 39.2766 45.8526 39.5508 45.8526 39.8368V81.8549C45.8526 89.1682 41.8708 93.3549 34.9348 93.3549C31.9426 93.407 28.9973 92.6068 26.4428 91.0477L16.7504 85.4882C15.5738 84.803 14.5975 83.8211 13.919 82.6406C13.2404 81.4601 12.8834 80.1223 12.8836 78.7607V36.2071C12.8801 34.8434 13.2356 33.5028 13.9143 32.3199C14.5931 31.1371 15.5712 30.1538 16.7504 29.4688L53.6259 8.17944C54.8138 7.52958 56.146 7.18896 57.5 7.18896C58.854 7.18896 60.1862 7.52958 61.374 8.17944L98.2459 29.4688C99.4224 30.1527 100.399 31.1332 101.078 32.3124C101.757 33.4916 102.115 34.8283 102.116 36.1891V78.7607C102.114 80.1223 101.756 81.4597 101.077 82.6399C100.398 83.8201 99.422 84.8021 98.2459 85.4882L61.374 106.778C60.1961 107.457 58.8599 107.814 57.5 107.813Z" fill="#83CD29"/>
<path d="M50.5066 64.5185C50.5066 64.2326 50.6202 63.9583 50.8224 63.7561C51.0246 63.554 51.2988 63.4404 51.5847 63.4404H56.3536C56.6084 63.4412 56.8547 63.5322 57.0488 63.6974C57.2429 63.8625 57.3722 64.091 57.4138 64.3424C58.1325 69.1976 60.2888 71.6449 70.0386 71.6449C77.8047 71.6449 81.1146 69.8876 81.1146 65.7655C81.1146 63.3901 80.1766 61.6255 68.1052 60.4432C58.0139 59.4441 51.7752 57.2088 51.7752 49.1444C51.7752 41.7054 58.0463 37.2671 68.558 37.2671C80.3707 37.2671 86.2177 41.3676 86.958 50.1651C86.9693 50.3119 86.9504 50.4596 86.9024 50.5989C86.8545 50.7381 86.7785 50.8661 86.6791 50.9749C86.5798 51.0837 86.4592 51.1709 86.3248 51.2313C86.1905 51.2916 86.0451 51.3238 85.8978 51.3258H81.0966C80.8557 51.3225 80.6229 51.2385 80.4353 51.0874C80.2478 50.9363 80.1162 50.7267 80.0616 50.4921C78.9152 45.3854 76.1085 43.7538 68.5616 43.7538C60.0803 43.7538 59.0957 46.7079 59.0957 48.9216C59.0957 51.6026 60.26 52.386 71.7097 53.899C83.0408 55.3976 88.4242 57.5179 88.4242 65.4816C88.4242 73.5173 81.7255 78.1172 70.0422 78.1172C53.8883 78.1388 50.5066 70.7321 50.5066 64.5185Z" fill="#83CD29"/>
</svg>
